HIERARCHY
ROOT root
{
	OFFSET	0	13.1	24.9
	CHANNELS 6  Xposition Yposition Zposition Xrotation Yrotation Zrotation
	JOINT spine_1
	{
		OFFSET	0	9.99999	0
		CHANNELS 3  Xrotation Yrotation Zrotation
		JOINT spine_2
		{
			OFFSET	0	112	-10
			CHANNELS 3  Xrotation Yrotation Zrotation
			JOINT spine_3
			{
				OFFSET	0	206.5	19.3
				CHANNELS 3  Xrotation Yrotation Zrotation
				JOINT spine_4
				{
					OFFSET	0	110.4	14.6
					CHANNELS 3  Xrotation Yrotation Zrotation
					JOINT neck_1
					{
						OFFSET	0	71.8	-50.3
						CHANNELS 3  Xrotation Yrotation Zrotation
						JOINT neck_2
						{
							OFFSET	0	86.2	-25.8
							CHANNELS 3  Xrotation Yrotation Zrotation
							JOINT head_ee
							{
								OFFSET	0	179.8	-8.7
								CHANNELS 3  Xrotation Yrotation Zrotation
								End Site
								{
									OFFSET	1	0	0
								}
							}
						}
					}
					JOINT left_clavicle
					{
						OFFSET	-43.2	22.4	-70.8
						CHANNELS 3  Xrotation Yrotation Zrotation
						JOINT left_shoulder
						{
							OFFSET	-93.9	-5.79999	48.7
							CHANNELS 3  Xrotation Yrotation Zrotation
							JOINT left_elbow
							{
								OFFSET	-291.4	-30.8	15.2
								CHANNELS 3  Xrotation Yrotation Zrotation
								JOINT left_lowarm_twist
								{
									OFFSET	-110.7	-3.89999	13.6
									CHANNELS 3  Xrotation Yrotation Zrotation
									JOINT left_hand
									{
										OFFSET	-110.7	-3.89999	13.6
										CHANNELS 3  Xrotation Yrotation Zrotation
										JOINT left_ee
										{
											OFFSET	-80.8	-5.10001	12.1
											CHANNELS 3  Xrotation Yrotation Zrotation
											End Site
											{
												OFFSET	1	0	0
											}
										}
									}
								}
							}
						}
					}
					JOINT right_clavicle
					{
						OFFSET	43.2	22.4	-70.8
						CHANNELS 3  Xrotation Yrotation Zrotation
						JOINT right_shoulder
						{
							OFFSET	93.9	-5.79999	48.7
							CHANNELS 3  Xrotation Yrotation Zrotation
							JOINT right_elbow
							{
								OFFSET	291.4	-30.8	15.2
								CHANNELS 3  Xrotation Yrotation Zrotation
								JOINT right_lowarm_twist
								{
									OFFSET	110.7	-3.89999	13.6
									CHANNELS 3  Xrotation Yrotation Zrotation
									JOINT right_hand
									{
										OFFSET	110.7	-3.89999	13.6
										CHANNELS 3  Xrotation Yrotation Zrotation
										JOINT right_ee
										{
											OFFSET	80.8	-5.10001	12.1
											CHANNELS 3  Xrotation Yrotation Zrotation
											End Site
											{
												OFFSET	1	0	0
											}
										}
									}
								}
							}
						}
					}
				}
			}
		}
	}
	JOINT left_hip
	{
		OFFSET	-82.8	-127.5	0.300001
		CHANNELS 3  Xrotation Yrotation Zrotation
		JOINT left_knee
		{
			OFFSET	-28.2	-396.7	2.2
			CHANNELS 3  Xrotation Yrotation Zrotation
			JOINT left_ankle
			{
				OFFSET	-11.7	-411.3	35.4
				CHANNELS 3  Xrotation Yrotation Zrotation
				JOINT left_toes
				{
					OFFSET	0	-60	-88.6
					CHANNELS 3  Xrotation Yrotation Zrotation
					JOINT left_foot_ee
					{
						OFFSET	-22.5	-16.5	-42.2
						CHANNELS 3  Xrotation Yrotation Zrotation
						End Site
						{
							OFFSET	1	0	0
						}
					}
				}
			}
		}
	}
	JOINT right_hip
	{
		OFFSET	82.8	-127.5	0.300001
		CHANNELS 3  Xrotation Yrotation Zrotation
		JOINT right_knee
		{
			OFFSET	28.2	-396.7	2.2
			CHANNELS 3  Xrotation Yrotation Zrotation
			JOINT right_ankle
			{
				OFFSET	11.7	-411.3	35.4
				CHANNELS 3  Xrotation Yrotation Zrotation
				JOINT right_toes
				{
					OFFSET	0	-60	-88.6
					CHANNELS 3  Xrotation Yrotation Zrotation
					JOINT right_foot_ee
					{
						OFFSET	22.5	-16.5	-42.2
						CHANNELS 3  Xrotation Yrotation Zrotation
						End Site
						{
							OFFSET	1	0	0
						}
					}
				}
			}
		}
	}
}
MOTION
Frames: 16
Frame Time: 0.02
467.914 766.704 -1300.67 169.488 -28.274 170.011 -8.867 0.0514295 3.03182 -8.8619 -0.141507 3.02895 -8.85766 -1.21813 2.77703 -8.8676 -0.764469 2.93439 5.16093 4.78696 -2.2089 5.32287 10.1294 -2.31133 -0.0 0.0 -0.0 3.16124 16.2429 6.87893 8.10233 -8.53878 68.0056 0.549847 -15.2367 0.073545 52.3786 -1.14431 -6.36228 -6.63357 -18.2917 -62.9397 -0.0 0.0 -0.0 12.4054 21.203 -24.7761 -5.30007 38.2278 -29.3718 0.601777 16.5996 -0.0877885 -79.6065 7.7719 -5.28487 -8.56815 -30.45 36.4476 0.0 0.0 0.0 4.95298 29.9841 -3.65416 -10.7401 0.291072 1.62014 19.008 7.05361 -2.60699 -32.2319 0.0 0.0 -0.0 0.0 -0.0 -12.0423 1.86394 10.3721 -1.87705 -0.0727231 -0.278871 36.6586 -27.0648 4.90096 20.9794 -0.0 -0.0 0.0 0.0 0.0 
471.719 763.745 -1301.57 169.788 -29.0943 169.283 -8.59553 0.010235 3.22228 -8.58978 -0.19472 3.21641 -8.58808 -1.32139 2.93916 -8.59915 -0.840858 3.11076 4.41402 5.28481 -2.9357 4.62867 11.6508 -3.05631 -0.0 0.0 -0.0 3.34013 15.9959 7.1551 6.96125 -8.55252 68.6684 0.563654 -15.6008 0.0772159 49.7065 -0.947876 -6.08211 -6.41562 -18.7917 -60.3347 -0.0 0.0 -0.0 12.507 21.3563 -24.9984 -5.28861 38.8916 -28.4357 0.601201 16.5846 -0.0876238 -80.0578 7.82917 -5.27896 -8.79277 -30.3276 38.214 0.0 0.0 0.0 4.92811 28.1082 -2.29192 -10.5398 0.28844 1.58952 17.6314 10.0286 -2.43558 -32.6399 0.0 0.0 -0.0 0.0 -0.0 -13.1248 3.76707 10.6782 1.10887 0.0472474 0.163598 33.7386 -26.2249 4.56134 21.1044 -0.0 -0.0 0.0 0.0 0.0 
473.221 767.3 -1301.03 169.418 -29.6286 168.531 -8.50203 0.157301 3.40555 -8.49558 -0.059593 3.40865 -8.48405 -1.25733 3.1691 -8.4973 -0.741346 3.32768 3.37119 6.0802 -3.79927 3.66263 13.8144 -3.88355 -0.0 0.0 -0.0 3.46593 15.7396 7.34869 5.2434 -8.55367 69.4962 0.600214 -16.5588 0.0873423 47.5049 -0.796034 -5.84468 -6.24344 -19.3013 -58.4564 -0.0 0.0 -0.0 12.5674 21.1433 -25.1552 -5.33929 39.7552 -28.2927 0.595943 16.4474 -0.0861292 -80.7001 7.91059 -5.26977 -9.29145 -31.3431 40.5253 0.0 0.0 0.0 4.19048 24.5933 -0.874606 -10.2911 0.285022 1.55152 17.1665 12.8919 -2.38453 -33.4175 0.0 0.0 -0.0 0.0 -0.0 -13.7257 6.62036 10.7054 0.573898 0.0240573 0.0847821 29.6328 -23.3008 4.02611 21.3104 -0.0 -0.0 0.0 0.0 0.0 
480.546 761.948 -1299.0 169.387 -30.4301 168.494 -8.58711 0.356635 3.78031 -8.57917 0.115538 3.79531 -8.55139 -1.23401 3.59123 -8.56879 -0.651773 3.74079 1.89094 7.24156 -5.01029 2.29752 16.9254 -4.96934 -0.0 0.0 -0.0 3.66722 15.2817 7.66086 4.49364 -8.71562 68.9069 0.658928 -18.0775 0.104822 45.1945 -0.646651 -5.5895 -6.04055 -19.8907 -56.3558 -0.0 0.0 -0.0 12.3606 20.5257 -24.7253 -5.74999 40.4149 -27.872 0.582964 16.108 -0.0824913 -80.9595 7.94343 -5.26579 -9.76397 -31.4543 44.0537 0.0 0.0 0.0 3.50636 20.9181 0.227029 -9.70938 0.276383 1.46267 16.4878 16.8621 -2.31752 -34.2531 0.0 0.0 -0.0 0.0 -0.0 -14.1987 10.7524 11.0447 -2.14981 -0.0825278 -0.319581 23.9373 -20.2762 3.29755 22.081 -0.0 -0.0 0.0 0.0 0.0 
488.246 759.294 -1297.99 169.081 -30.8936 167.954 -8.65089 0.602751 4.04161 -8.64187 0.344569 4.07171 -8.59252 -1.12012 3.92997 -8.61374 -0.485937 4.05729 1.78373 8.48276 -6.77287 2.42624 20.5756 -6.84776 -0.0 0.0 -0.0 4.15598 14.3969 8.44044 3.90467 -8.94051 68.5591 0.735435 -20.0173 0.129794 43.2404 -0.528449 -5.36918 -5.84987 -20.3044 -54.4261 -0.0 0.0 -0.0 12.307 19.809 -24.6535 -6.18906 41.5827 -28.2909 0.572673 15.838 -0.0796594 -81.3369 7.99119 -5.25974 -9.73737 -28.9 47.9333 0.0 0.0 0.0 2.54571 15.8197 1.6477 -10.3827 0.2863 1.56552 15.4719 21.7082 -2.22219 -34.6761 0.0 0.0 -0.0 0.0 -0.0 -15.139 16.5868 11.4698 -6.55031 -0.213745 -0.98201 16.0155 -18.8565 2.26975 23.7581 -0.0 -0.0 0.0 0.0 0.0 
490.176 763.671 -1289.9 168.045 -31.5693 167.197 -8.71579 0.63164 4.15564 -8.70626 0.366163 4.18734 -8.65297 -1.14522 4.04454 -8.67546 -0.492677 4.17437 1.82177 8.61114 -8.02614 2.60592 21.8397 -8.26491 -0.0 0.0 -0.0 4.80569 13.6531 9.51011 3.65252 -8.93647 66.9871 0.605349 -16.6927 0.0888117 41.9886 -0.456716 -5.22599 -5.58109 -21.8616 -52.1968 -0.0 0.0 -0.0 12.2143 18.668 -24.5145 -7.30509 42.5796 -28.7829 0.557107 15.4283 -0.0754646 -81.871 8.05869 -5.25064 -9.60077 -24.723 53.6137 0.0 0.0 0.0 0.81171 11.581 2.70369 -10.0084 0.280936 1.50833 15.4432 24.2432 -2.24558 -35.2039 0.0 0.0 -0.0 0.0 -0.0 -14.2642 24.2887 12.2946 -14.0362 -0.319002 -2.12503 6.80357 -20.9742 1.00251 26.6932 -0.0 -0.0 0.0 0.0 0.0 
505.81 763.119 -1282.65 166.895 -32.3758 166.088 -9.0183 0.775471 4.53082 -9.00701 0.485901 4.57087 -8.93516 -1.19155 4.43976 -8.96234 -0.47619 4.57189 1.23489 8.9419 -8.42099 2.0549 22.7591 -8.56096 -0.0 0.0 -0.0 5.74237 12.5275 11.1024 3.48282 -9.01696 64.4628 0.425923 -11.9143 0.0444445 40.2018 -0.359799 -5.01902 -5.18038 -24.0683 -49.0209 -0.0 0.0 -0.0 12.0873 17.0307 -24.3129 -8.74253 43.7411 -29.635 0.53507 14.8455 -0.0697101 -82.6252 8.15383 -5.2367 -9.44005 -19.5925 60.9537 0.0 0.0 0.0 -1.35548 5.56944 4.07278 -8.44892 0.25457 1.27049 15.6521 27.7254 -2.32082 -35.9397 0.0 0.0 -0.0 0.0 -0.0 -13.4856 31.7043 10.538 -24.45 -0.216337 -3.71743 -5.11786 -24.4793 -0.787182 31.6182 -0.0 -0.0 0.0 0.0 0.0 
522.078 758.153 -1274.89 164.996 -34.6592 164.377 -9.02513 0.92461 4.80637 -9.01249 0.617265 4.8553 -8.92203 -1.17018 4.75267 -8.9533 -0.405843 4.87747 1.596 9.20179 -9.14654 2.55064 23.8067 -9.45497 -0.0 0.0 -0.0 6.31228 10.627 12.1386 3.19899 -9.74241 63.2068 0.225146 -6.36408 0.0125169 38.2993 -0.263773 -4.79548 -4.8671 -26.4647 -46.8675 -0.0 0.0 -0.0 12.2582 15.5143 -24.771 -9.57074 44.4832 -31.2917 0.511053 14.2067 -0.0636859 -82.9167 8.19055 -5.23098 -9.07394 -15.0396 64.0922 0.0 0.0 0.0 -6.09036 1.21517 5.74257 -2.1465 0.0824103 0.319088 13.8235 27.5704 -2.06088 -37.6123 0.0 0.0 -0.0 0.0 -0.0 -9.62248 35.1849 7.70803 -34.9339 0.176308 -5.2762 -14.9164 -28.0372 -2.36908 34.1997 -0.0 -0.0 0.0 0.0 0.0 
537.333 754.062 -1269.22 164.042 -36.1617 162.931 -9.02445 0.624817 4.91815 -9.01105 0.310988 4.94784 -8.94726 -1.49243 4.72815 -8.97771 -0.727928 4.90398 2.07063 9.3293 -9.60127 3.1325 24.3976 -10.088 -0.0 0.0 -0.0 6.22697 10.7407 11.9854 3.02718 -9.92657 62.8421 0.213628 -6.04098 0.0112724 36.6565 -0.186876 -4.60001 -4.65226 -26.4459 -44.9761 -0.0 0.0 -0.0 11.9567 13.6167 -24.1394 -10.2314 45.9486 -31.905 0.52188 14.4952 -0.0663695 -83.3513 8.24523 -5.22209 -9.15747 -13.345 69.0339 0.0 0.0 0.0 -7.52787 -0.509941 7.00744 -1.6519 0.0644833 0.245299 13.1635 27.1548 -1.96181 -37.7572 0.0 0.0 -0.0 0.0 -0.0 -9.91675 36.9357 7.91679 -41.8554 0.589005 -6.25604 -19.9081 -29.4908 -3.20119 34.7703 -0.0 -0.0 0.0 0.0 0.0 
553.74 746.345 -1260.14 163.146 -36.4339 161.275 -9.02874 0.622831 4.99423 -9.01492 0.304183 5.02364 -8.95027 -1.52646 4.79631 -8.98158 -0.750816 4.97664 2.99932 10.2258 -8.63649 4.10886 25.1231 -9.17598 -0.0 0.0 -0.0 6.10372 10.9277 11.7645 2.40357 -10.1183 62.6964 0.215688 -6.09881 0.0114903 34.7217 -0.103556 -4.36713 -4.38246 -26.9076 -42.8148 -0.0 0.0 -0.0 11.8889 13.2664 -23.9932 -10.3132 47.0158 -33.1104 0.538913 14.9474 -0.070698 -83.7779 8.29882 -5.21296 -9.17299 -12.4451 71.4671 0.0 0.0 0.0 -9.47408 -0.996859 9.01131 -2.56142 0.0969563 0.381104 13.7488 26.8587 -2.04125 -37.2178 0.0 0.0 -0.0 0.0 -0.0 -9.34521 37.9562 7.12271 -45.6824 0.86727 -6.77472 -22.3579 -31.5608 -3.65037 34.9876 -0.0 -0.0 0.0 0.0 0.0 
563.761 742.974 -1254.48 162.471 -35.5519 160.559 -9.01475 0.791417 5.14574 -9.00015 0.462828 5.18553 -8.91648 -1.43355 5.00535 -8.95088 -0.62618 5.16839 4.28229 11.1907 -7.02748 5.39455 25.3465 -7.58542 -0.0 0.0 -0.0 5.93019 10.7463 11.465 2.2511 -10.4922 61.7149 0.218471 -6.17689 0.0117877 33.8306 -0.0678401 -4.25896 -4.21503 -26.7739 -41.388 -0.0 0.0 -0.0 11.7169 13.0979 -23.6063 -10.2348 48.0021 -35.2699 0.54148 15.0154 -0.0713615 -84.5382 8.39416 -5.19569 -9.12743 -11.7627 72.0859 0.0 0.0 0.0 -9.99821 -1.27922 8.98829 -3.8292 0.138612 0.571209 14.5844 27.2467 -2.16418 -37.2293 0.0 0.0 -0.0 0.0 -0.0 -9.47762 37.6032 7.12843 -47.563 1.01661 -7.02263 -23.6783 -30.5576 -3.83896 35.3577 -0.0 -0.0 0.0 0.0 0.0 
573.674 743.802 -1244.32 161.196 -35.0822 159.833 -8.98255 1.03051 5.23544 -8.96758 0.695753 5.29019 -8.85802 -1.24785 5.18806 -8.89532 -0.41405 5.31958 5.7005 12.732 -4.62515 6.80112 25.7678 -5.04607 -0.0 0.0 -0.0 5.71046 10.4455 11.0852 2.00454 -11.0183 60.327 0.228409 -6.45556 0.0128812 32.5761 -0.0204257 -4.10579 -3.98068 -26.5252 -39.4105 -0.0 0.0 -0.0 11.4993 12.8572 -23.1193 -9.89984 49.403 -38.7142 0.548527 15.2018 -0.0731983 -85.27 8.48566 -5.17787 -9.06239 -10.7859 72.9423 0.0 0.0 0.0 -10.9834 -1.7159 9.19119 -5.67941 0.191824 0.850158 15.7741 27.6248 -2.33637 -37.2475 0.0 0.0 -0.0 0.0 -0.0 -8.69747 37.1604 6.48014 -49.6358 1.1906 -7.29015 -24.5296 -28.0969 -3.91319 36.1117 -0.0 -0.0 0.0 0.0 0.0 
591.363 744.65 -1244.55 162.154 -35.4963 160.949 -8.90283 1.25224 5.20742 -8.88822 0.918819 5.27629 -8.75704 -1.02444 5.25685 -8.79553 -0.182609 5.35236 4.68597 13.3425 -3.78672 5.69891 26.2436 -3.84182 -0.0 0.0 -0.0 5.49222 10.3232 10.704 3.05141 -11.5105 59.9152 0.253394 -7.15473 0.0158417 31.0456 0.0328569 -3.91759 -3.85595 -27.0297 -38.5704 -0.0 0.0 -0.0 11.4441 13.5002 -22.9794 -10.5658 49.4043 -39.2111 0.558331 15.4606 -0.0757905 -85.0382 8.45671 -5.18364 -9.10564 -10.4285 75.0586 0.0 0.0 0.0 -10.856 -2.12734 9.19541 -4.80014 0.16766 0.717385 15.2192 28.31 -2.26875 -37.4506 0.0 0.0 -0.0 0.0 -0.0 -8.84724 36.6063 7.13428 -47.6082 1.0203 -7.02854 -25.6926 -26.7982 -4.06698 37.4396 -0.0 -0.0 0.0 0.0 0.0 
597.518 740.892 -1246.86 162.31 -36.4429 161.641 -8.75073 1.12169 5.10448 -8.73659 0.795054 5.16529 -8.62166 -1.08868 5.1116 -8.658 -0.268889 5.21905 4.71759 13.8722 -3.37283 5.75421 26.7983 -3.35903 -0.0 0.0 -0.0 5.3084 10.1123 10.383 4.29625 -12.0626 59.0011 0.286835 -8.08719 0.0202768 30.4279 0.0529305 -3.84126 -3.77877 -26.7794 -37.8845 -0.0 0.0 -0.0 11.7599 14.9769 -23.6507 -11.6978 49.3902 -39.0759 0.577284 15.9591 -0.0809224 -85.0189 8.4543 -5.18412 -9.02719 -9.88468 74.3562 0.0 0.0 0.0 -10.7813 -2.13578 9.81685 -3.5677 0.130364 0.531923 15.4637 28.3424 -2.30369 -38.0516 0.0 0.0 -0.0 0.0 -0.0 -7.07723 36.2494 6.37339 -48.7782 1.11743 -7.18021 -25.3109 -26.8806 -4.00858 38.0614 -0.0 -0.0 0.0 0.0 0.0 
608.165 747.74 -1250.31 162.268 -37.1007 162.097 -8.63184 0.885381 5.08787 -8.61762 0.56027 5.13374 -8.52694 -1.28954 5.00096 -8.5615 -0.484646 5.14141 4.10503 10.031 -4.53053 4.78608 21.2333 -4.65743 -0.0 0.0 -0.0 5.15809 9.85167 10.1194 6.12337 -11.8625 58.6756 0.330436 -9.29641 0.0268662 34.2749 -0.0854393 -4.31297 -3.90766 -27.2177 -39.0375 -0.0 0.0 -0.0 11.8901 16.4218 -23.8899 -10.9869 45.6577 -40.6826 0.72054 19.6432 -0.124741 -84.9178 8.44165 -5.18659 -8.89788 -9.06516 73.0448 0.0 0.0 0.0 -10.8459 -1.62899 10.3766 -3.13967 0.116478 0.467701 10.606 28.5675 -1.60821 -39.3896 0.0 0.0 -0.0 0.0 -0.0 -6.2077 31.7311 7.3901 -46.7089 0.947772 -6.91064 -21.3156 -29.7289 -3.43467 38.6952 -0.0 -0.0 0.0 0.0 0.0 
621.476 746.647 -1254.13 161.625 -36.6555 161.092 -8.74833 0.826665 4.93507 -8.73493 0.511357 4.97753 -8.65232 -1.29068 4.83474 -8.68455 -0.511919 4.97747 3.73754 10.0843 -4.26597 4.3814 21.1348 -4.28524 -0.0 0.0 -0.0 4.32665 11.2457 8.68564 9.03818 -11.8443 60.4786 0.341985 -9.61536 0.0287636 40.0662 -0.352713 -5.0032 -4.61898 -26.7562 -44.7778 -0.0 0.0 -0.0 12.1792 19.4487 -24.3837 -14.624 44.4245 -39.2995 0.720004 19.6298 -0.124561 -85.2291 8.48055 -5.1789 -9.07118 -11.6232 71.1216 0.0 0.0 0.0 -11.4287 4.6804 10.9028 -6.92035 0.222453 1.03813 19.8114 26.3224 -2.8659 -38.4082 0.0 0.0 -0.0 0.0 -0.0 -5.4907 33.2972 6.77297 -47.0543 0.975409 -6.95605 -20.2702 -30.41 -3.28029 38.7101 -0.0 -0.0 0.0 0.0 0.0 
